<?xml version="1.0" standalone="no"?>
<!DOCTYPE svg PUBLIC "-//W3C//DTD SVG 20010904//EN"
 "http://www.w3.org/TR/2001/REC-SVG-20010904/DTD/svg10.dtd">
<svg version="1.0" xmlns="http://www.w3.org/2000/svg"
 width="500.000000pt" height="500.000000pt" viewBox="0 0 500.000000 500.000000"
 preserveAspectRatio="xMidYMid meet">
<metadata>
Created by potrace 1.11, written by Peter Selinger 2001-2013
</metadata>
<g transform="translate(0.000000,500.000000) scale(0.100000,-0.100000)"
fill="#000000" stroke="none">
<path d="M0 2500 l0 -2500 2500 0 2500 0 0 2500 0 2500 -2500 0 -2500 0 0
-2500z m4890 -5 l0 -2395 -2395 0 -2395 0 0 2395 0 2395 2395 0 2395 0 0
-2395z"/>
<path d="M1635 3560 c-139 -24 -199 -44 -311 -101 -116 -58 -186 -109 -275
-200 -161 -162 -268 -372 -303 -592 -14 -84 -14 -269 -2 -347 96 -581 644
-983 1211 -889 208 35 360 107 539 254 52 44 89 99 81 124 -7 24 -194 192
-226 204 -32 11 -52 2 -116 -54 -202 -172 -483 -213 -721 -103 -348 160 -501
579 -341 939 76 172 280 343 454 381 75 17 109 20 180 18 178 -5 344 -75 460
-193 21 -23 47 -41 56 -41 9 0 70 46 135 102 66 56 120 102 120 102 1 1 5 11
8 23 6 18 -5 33 -55 83 -238 233 -580 344 -894 290z"/>
<path d="M2853 3535 c-23 -16 -23 -17 -23 -283 1 -340 -12 -316 168 -319 128
-3 130 -2 156 23 22 23 26 35 26 89 0 47 5 69 19 86 19 24 22 24 203 24 171
-1 186 -2 228 -24 101 -52 151 -126 158 -236 3 -55 0 -80 -16 -117 -29 -65
-83 -122 -145 -149 -51 -22 -60 -23 -402 -25 -192 -1 -353 -2 -357 -3 -4 -1
-14 -8 -22 -17 -14 -14 -16 -79 -16 -563 0 -498 2 -550 17 -562 12 -11 53 -14
160 -14 130 0 146 2 158 19 12 15 14 86 14 369 1 283 3 353 14 365 21 20 364
20 384 -1 8 -8 74 -148 147 -313 189 -427 193 -434 213 -436 75 -6 310 -3 321
5 6 5 12 16 12 23 0 14 -116 281 -196 453 -24 51 -44 95 -44 98 0 4 -7 21 -79
176 -23 49 -41 99 -41 111 0 13 25 45 66 85 141 136 212 297 212 485 0 174
-84 366 -212 484 -84 78 -231 150 -346 171 -30 5 -212 10 -405 11 -304 0 -353
-2 -372 -15z"/>
</g>
</svg>
